<svg width="300" height="153" viewBox="0 0 300 153" xmlns="http://www.w3.org/2000/svg" fill="#0077D4">
    <g clip-path="url(#clip0)">
            <path d="M73.2,73.09c-1.74,-1.12 -6,-2 -12.71,-3.33c-4,-0.79 -10,-2 -11.35,-2.74c-0.3,-0.832 -0.423,-1.718 -0.36,-2.6c0,-2.11 0.53,-3.83 1.43,-4.63c0.56,-0.39 2.73,-1.47 9.67,-1.47c3.641,0.042 7.276,0.285 10.89,0.73l1.6,0.17c0.12,0.015 0.241,0.022 0.361,0.022c1.608,0 2.93,-1.322 2.93,-2.93c0,-0.03 0,-0.061 -0.001,-0.092c0,-2.29 -1.82,-5.82 -4.16,-6.93c-0.68,-0.29 -2.77,-1.29 -12.18,-1.29c-8,0 -13.58,1.37 -16.93,4.21c-3.17,2.71 -4.77,7.22 -4.77,13.4c0,3.47 0.57,8 3.34,10c1.73,1.17 6.18,2.16 13.31,3.64c4,0.84 9.54,2 10.59,2.64c1.05,0.64 0.51,0.44 0.51,2.88c0,3 -0.72,3.92 -1.35,4.41l-0.13,0.11c-0.46,0.43 -2.2,1.15 -8.77,1.15c-4.584,-0.124 -9.153,-0.582 -13.67,-1.37l-0.08,0l-0.4,0c-1.646,0 -3,1.354 -3,3c0.13,2.86 1.618,5.492 4,7.08c2.24,1.29 8.38,1.75 13.37,1.75c8.55,0 13.7,-1.13 16.71,-3.65c3.17,-2.72 4.78,-7.42 4.78,-14c0,-6.58 -2,-9.08 -3.59,-10.12" style="fill:#194464;fill-rule:nonzero;"></path><path d="M119.75,73.09c-1.74,-1.12 -6,-2 -12.72,-3.33c-4,-0.79 -10,-2 -11.35,-2.74c-0.3,-0.832 -0.423,-1.718 -0.36,-2.6c0,-2.11 0.54,-3.83 1.44,-4.63c0.55,-0.39 2.72,-1.47 9.66,-1.47c3.641,0.042 7.276,0.285 10.89,0.73l1.6,0.17c0.12,0.015 0.24,0.022 0.361,0.022c1.613,0 2.94,-1.327 2.94,-2.94c0,-0.027 0,-0.055 -0.001,-0.082c0,-2.29 -1.82,-5.82 -4.16,-6.93c-0.69,-0.29 -2.77,-1.29 -12.19,-1.29c-8,0 -13.57,1.37 -16.92,4.21c-3.17,2.71 -4.78,7.22 -4.78,13.4c0,3.47 0.57,8 3.34,10c1.73,1.17 6.19,2.15 13.32,3.64c4,0.84 9.54,2 10.59,2.64c1.05,0.64 0.52,0.44 0.52,2.88c0,3 -0.73,3.92 -1.35,4.41l-0.13,0.12c-0.46,0.42 -2.21,1.14 -8.77,1.14c-4.588,-0.126 -9.16,-0.588 -13.68,-1.38l-0.09,0l-0.39,0c-0.017,0 -0.033,0 -0.05,0c-1.646,0 -3,1.354 -3,3c0,0 0,0 0,0c0.141,2.857 1.626,5.485 4,7.08c2.25,1.29 8.38,1.75 13.38,1.75c8.55,0 13.69,-1.13 16.7,-3.65c3.18,-2.72 4.78,-7.42 4.78,-14c0,-6.58 -2,-9.08 -3.58,-10.12" style="fill:#194464;fill-rule:nonzero;"></path><path d="M175.22,48.63l-1.9,0c-3.75,0 -5.58,1.69 -5.58,5.16l0,36.82c-0.086,0.015 -0.174,0.015 -0.26,0c-0.1,-0.06 -0.36,-0.37 -1,-1.66l-13.05,-31.95c-1.49,-3.86 -2.63,-5.74 -4.18,-6.92c-1.55,-1.18 -4,-1.81 -7.81,-1.81c-3.81,0 -6.17,0.68 -7.64,2c-1.47,1.32 -2.3,3.76 -2.3,7.7l0,39.13c-0.008,0.087 -0.012,0.175 -0.012,0.263c0,1.53 1.259,2.79 2.79,2.79c0.04,0 0.081,-0.001 0.122,-0.003l1.69,0c1.61,0 5.86,0 5.86,-5.23l0,-36.53c0.13,-0.016 0.26,-0.016 0.39,0c0.428,0.553 0.766,1.171 1,1.83l13.15,32.07c1.23,3.08 2.49,5.15 3.85,6.33l0.1,0.08c1.71,1.3 4.1,1.88 7.75,1.88c4.12,0 6.61,-0.75 8,-2.39c1.39,-1.64 2.15,-3.74 2.15,-6.92l0,-39.59c0.003,-0.056 0.005,-0.113 0.005,-0.17c0,-1.585 -1.305,-2.89 -2.89,-2.89c-0.078,0 -0.157,0.004 -0.235,0.01" style="fill:#5fba94;fill-rule:nonzero;"></path><path d="M202.41,87.18l-0.51,0c-0.82,0 -1.15,0.3 -1.15,1l0,9.66c0,0.45 -0.09,0.5 -0.31,0.5c-0.22,0 -0.39,-0.07 -0.66,-0.65l-3.5,-8.53c-0.172,-0.647 -0.518,-1.235 -1,-1.7c-0.568,-0.339 -1.231,-0.487 -1.89,-0.42c-0.643,-0.065 -1.289,0.101 -1.82,0.47c-0.411,0.503 -0.593,1.157 -0.5,1.8l0,10.49c0,0.42 0.28,0.48 0.44,0.48l0.49,0c0.74,0 1.24,-0.18 1.24,-1.07l0,-9.76c0,-0.29 0,-0.33 0.3,-0.33c0.3,0 0.4,0 0.7,0.7l3.52,8.57c0.192,0.587 0.513,1.124 0.94,1.57c0.559,0.344 1.217,0.495 1.87,0.43c0.679,0.096 1.369,-0.096 1.9,-0.53c0.361,-0.459 0.532,-1.039 0.48,-1.62l0,-10.58c0.001,-0.015 0.002,-0.03 0.002,-0.044c0,-0.242 -0.198,-0.44 -0.44,-0.44c-0.021,0 -0.041,0.001 -0.062,0.004" style="fill:#5fba94;fill-rule:nonzero;"></path><path d="M210.54,89.9c-1.239,-0.101 -2.475,0.227 -3.5,0.93c-0.68,0.57 -1.49,1.8 -1.49,4.42c0,2.14 0.38,3.39 1.27,4.19c1.079,0.769 2.4,1.124 3.72,1c1.052,0.051 2.105,-0.084 3.11,-0.4c0.502,-0.331 0.83,-0.871 0.89,-1.47c0,-0.003 0,-0.007 0,-0.01c0,-0.238 -0.192,-0.435 -0.43,-0.44l-0.11,0c-1.022,0.193 -2.06,0.293 -3.1,0.3c-1.59,0 -2.21,-0.28 -2.47,-0.52c-0.447,-0.486 -0.659,-1.144 -0.58,-1.8c0,-0.12 0,-0.16 0.44,-0.16l5.94,0c0.66,0 0.66,-0.57 0.66,-0.84c0,-2.31 -0.34,-3.62 -1.16,-4.36c-0.947,-0.644 -2.091,-0.934 -3.23,-0.82m-2,2.35c1.103,-0.592 2.422,-0.632 3.56,-0.11c0.393,0.466 0.578,1.074 0.51,1.68c0,0.15 0,0.22 -0.06,0.26c-0.129,0.019 -0.261,0.019 -0.39,0l-3.86,0c-0.129,0.023 -0.261,0.023 -0.39,0c-0.129,-0.023 0,0 0,-0.09c-0.012,-0.639 0.217,-1.26 0.64,-1.74" style="fill:#5fba94;fill-rule:nonzero;"></path><path d="M220.63,92l2,0c0.27,0.028 0.543,-0.017 0.79,-0.13c0.464,-0.3 0.772,-0.791 0.84,-1.34c0,-0.008 0.001,-0.015 0.001,-0.023c0,-0.236 -0.194,-0.43 -0.43,-0.43c-0.017,0 -0.034,0.001 -0.051,0.003l-3,0c-0.79,0 -0.79,0 -0.79,-0.83l0,-1.35c0.001,-0.013 0.002,-0.027 0.002,-0.04c0,-0.247 -0.203,-0.45 -0.45,-0.45c-0.001,0 -0.001,0 -0.002,0l-0.06,0c-0.542,0.011 -1.067,0.193 -1.5,0.52c-0.172,0.303 -0.239,0.655 -0.19,1l0,0.83c0,0.32 -0.08,0.32 -0.2,0.32l-0.28,0c-0.21,-0.012 -0.42,0.03 -0.61,0.12c-0.399,0.359 -0.637,0.864 -0.66,1.4c0,0.003 0,0.007 0,0.01c0,0.214 0.176,0.39 0.39,0.39c0.003,0 0.007,0 0.01,0l0.81,0c0.5,0 0.54,0 0.54,0.63l0,4.37c0,1.59 0.13,2.19 0.6,2.66c0.779,0.53 1.724,0.761 2.66,0.65c0.722,0.056 1.447,-0.039 2.13,-0.28c0.506,-0.286 0.842,-0.802 0.9,-1.38c-0.005,-0.238 -0.202,-0.43 -0.44,-0.43l-0.07,0c-0.592,0.093 -1.191,0.136 -1.79,0.13c-0.85,0 -1.32,-0.09 -1.51,-0.27c-0.19,-0.18 -0.28,-0.48 -0.28,-1.51l0,-4c0,-0.62 0,-0.65 0.64,-0.65" style="fill:#5fba94;fill-rule:nonzero;"></path><path d="M240.27,90.07l-0.55,0c-0.91,0 -1.17,0.41 -1.32,1.16l-1.28,6.58c-0.09,0.53 -0.16,0.55 -0.46,0.55c-0.3,0 -0.34,0 -0.41,-0.46l-1,-5.51c-0.035,-0.576 -0.26,-1.125 -0.64,-1.56c-0.495,-0.379 -1.122,-0.545 -1.74,-0.46c-0.603,-0.049 -1.204,0.114 -1.7,0.46c-0.395,0.43 -0.637,0.978 -0.69,1.56l-1.1,5.61c-0.08,0.32 -0.13,0.4 -0.44,0.4c-0.31,0 -0.38,-0.09 -0.46,-0.4l-1.24,-6.67c-0.16,-0.92 -0.49,-1.22 -1.35,-1.22l-0.62,0c-0.144,-0.008 -0.285,0.051 -0.38,0.16c-0.077,0.111 -0.099,0.251 -0.06,0.38l1.55,7.86c0.053,0.566 0.288,1.099 0.67,1.52c0.528,0.328 1.152,0.469 1.77,0.4c0.614,0.061 1.232,-0.08 1.76,-0.4c0.31,-0.23 0.57,-0.6 0.79,-1.69l1.13,-5.43c0.09,-0.46 0.15,-0.46 0.36,-0.46c0.21,0 0.25,0 0.32,0.43l1,5.51c0.18,1 0.35,1.38 0.69,1.64c0.527,0.323 1.145,0.464 1.76,0.4c0.615,0.062 1.234,-0.09 1.75,-0.43c0.435,-0.477 0.708,-1.079 0.78,-1.72l1.57,-7.63c0.034,-0.131 0.008,-0.27 -0.07,-0.38c-0.096,-0.108 -0.236,-0.167 -0.38,-0.16" style="fill:#5fba94;fill-rule:nonzero;"></path><path d="M247.46,89.9c-1.291,-0.094 -2.579,0.232 -3.67,0.93c-1,0.76 -1.53,2.36 -1.53,4.5c0,1.95 0.39,3.28 1.19,4.08c1.044,0.809 2.354,1.198 3.67,1.09c1.309,0.099 2.615,-0.231 3.72,-0.94c0.93,-0.77 1.46,-2.42 1.46,-4.52c0,-2.1 -0.39,-3.34 -1.18,-4.14c-0.79,-0.8 -1.87,-1 -3.66,-1m1.78,8.16c-0.602,0.357 -1.303,0.515 -2,0.45c-0.709,0.063 -1.419,-0.128 -2,-0.54c-0.524,-0.812 -0.757,-1.778 -0.66,-2.74c0,-1.83 0.49,-2.55 0.79,-2.82c0.617,-0.425 1.364,-0.619 2.11,-0.55c1.3,0 1.81,0.3 2,0.56c0.19,0.26 0.66,1 0.66,2.72c0,1.44 -0.31,2.53 -0.84,2.92" style="fill:#5fba94;fill-rule:nonzero;"></path><path d="M260.94,90.17c-0.723,-0.21 -1.479,-0.288 -2.23,-0.23c-1.154,0.021 -2.306,0.111 -3.45,0.27c-0.241,0.015 -0.432,0.217 -0.432,0.459c0,0.014 0.001,0.027 0.002,0.041l0,9.1c-0.002,0.017 -0.003,0.034 -0.003,0.051c0,0.231 0.189,0.42 0.42,0.42c0.011,0 0.022,0 0.033,-0.001l1.35,0c0.011,0.001 0.021,0.001 0.032,0.001c0.236,0 0.43,-0.194 0.43,-0.43c0,-0.014 -0.001,-0.027 -0.002,-0.041l0,-7.19c0,-0.49 0,-0.49 0.39,-0.57c0.39,-0.08 1.12,-0.08 1.87,-0.08c0.57,0 1.35,0.05 1.89,0.1l0.06,0c0.227,-0.005 0.41,-0.193 0.41,-0.42c0,-0.003 0,-0.007 0,-0.01c0.003,-0.587 -0.286,-1.138 -0.77,-1.47" style="fill:#5fba94;fill-rule:nonzero;"></path><path d="M272.31,90.69c0.079,-0.136 0.079,-0.304 0,-0.44c-0.082,-0.122 -0.223,-0.191 -0.37,-0.18l-0.45,0c-0.799,-0.11 -1.57,0.367 -1.83,1.13l-1.07,2.1c-0.31,0.61 -0.56,0.75 -1.33,0.75l-1.26,0c-0.6,0 -0.6,0 -0.6,-0.6l0,-7.09c0,-0.41 -0.24,-0.5 -0.43,-0.5l-1.43,0c-0.224,0.009 -0.403,0.196 -0.403,0.42c0,0.016 0.001,0.033 0.003,0.05l0,13.49c-0.004,0.023 -0.006,0.047 -0.006,0.07c0,0.214 0.176,0.39 0.39,0.39c0.005,0 0.011,0 0.016,0l1.46,0c0.011,0.001 0.021,0.001 0.032,0.001c0.23,0 0.42,-0.189 0.42,-0.42c0,-0.014 -0.001,-0.027 -0.002,-0.041l0,-3.22c0,-0.62 0,-0.62 0.57,-0.62l1.18,0c0.77,0 1,0.08 1.42,1l0.93,2c0.216,0.79 0.987,1.308 1.8,1.21l0.51,0c0.152,0.01 0.299,-0.058 0.39,-0.18c0.068,-0.121 0.068,-0.269 0,-0.39l-1.58,-3.42c-0.218,-0.366 -0.364,-0.77 -0.43,-1.19c0.059,-0.36 0.199,-0.702 0.41,-1l1.66,-3.32Z" style="fill:#5fba94;fill-rule:nonzero;"></path><path d="M110.26,24.77c-0.06,-0.4 8.37,-2 18.48,2c9.85,3.88 14.64,11.31 14.2,11.52c-0.44,0.21 -4.07,-4 -15.45,-8.47c-13.36,-5.29 -17.17,-4.65 -17.23,-5.08" style="fill:#5fba94;fill-rule:nonzero;"></path><path d="M94.42,18.23c-0.16,-0.38 7.52,-4.17 18.34,-3.09c10.53,1.06 17.16,6.91 16.8,7.23c-0.36,0.32 -5,-2.7 -17.17,-3.94c-14.3,-1.46 -17.8,0.2 -18,-0.2" style="fill:#5fba94;fill-rule:nonzero;"></path><path d="M77.06,15.53c-0.26,-0.31 5.95,-6.2 16.61,-8.35c10.38,-2.09 18.44,1.54 18.19,2c-0.25,0.46 -5.58,-1.1 -17.57,1.3c-14.1,2.81 -16.94,5.43 -17.23,5.1" style="fill:#5fba94;fill-rule:nonzero;"></path><path d="M58.73,18.62c-0.36,-0.2 3.54,-7.83 12.87,-13.41c9.09,-5.43 17.9,-4.69 17.8,-4.22c-0.1,0.47 -5.62,0.82 -16.14,7.08c-12.35,7.35 -14.16,10.77 -14.53,10.55" style="fill:#5fba94;fill-rule:nonzero;"></path><path d="M42.91,26.41c-0.4,-0.1 1.17,-8.52 8.52,-16.53c7.17,-7.79 15.82,-9.59 15.86,-9.11c0.04,0.48 -5.16,2.38 -13.45,11.38c-9.75,10.57 -10.51,14.36 -10.93,14.26" style="fill:#5fba94;fill-rule:nonzero;"></path><path d="M28.53,39c-0.41,0 -1.07,-8.52 4,-18.17c4.9,-9.38 12.79,-13.36 13,-12.9c0.21,0.46 -4.37,3.64 -10,14.47c-6.81,12.76 -6.53,16.6 -7,16.6" style="fill:#5fba94;fill-rule:nonzero;"></path><path d="M21.57,53.73c-0.38,0.16 -4,-7.59 -2.74,-18.39c1.26,-10.51 7.23,-17 7.55,-16.66c0.32,0.34 -2.8,4.95 -4.27,17.09c-1.73,14.27 -0.14,17.8 -0.54,18" style="fill:#5fba94;fill-rule:nonzero;"></path><path d="M17.79,71.33c-0.31,0.26 -6.16,-6 -8.24,-16.67c-2,-10.39 1.66,-18.42 2.07,-18.17c0.41,0.25 -1.14,5.57 1.18,17.58c2.73,14.11 5.32,17 5,17.26" style="fill:#5fba94;fill-rule:nonzero;"></path><path d="M18.58,88.41c-0.23,0.34 -7.5,-4.19 -12.27,-14c-4.65,-9.51 -3.18,-18.23 -2.71,-18.09c0.47,0.14 0.34,5.68 5.69,16.68c6.29,12.92 9.54,15 9.29,15.37" style="fill:#5fba94;fill-rule:nonzero;"></path><path d="M25.18,105.13c-0.13,0.39 -8.38,-1.91 -15.71,-9.94c-7.14,-7.81 -8.18,-16.59 -7.7,-16.59c0.48,0 1.93,5.4 10.17,14.4c9.67,10.62 13.38,11.71 13.24,12.13" style="fill:#5fba94;fill-rule:nonzero;"></path><path d="M36.33,119.14c0,0.41 -8.56,0.72 -18,-4.7c-9.16,-5.28 -12.81,-13.34 -12.33,-13.44c0.48,-0.1 3.45,4.51 14.05,10.63c12.44,7.2 16.31,7.11 16.3,7.55" style="fill:#5fba94;fill-rule:nonzero;"></path><path d="M50.53,129.87c0.11,0.39 -8,3 -18.59,0.35c-10.26,-2.59 -16,-9.35 -15.56,-9.62c0.44,-0.27 4.55,3.4 16.41,6.4c13.93,3.55 17.63,2.42 17.74,2.84" style="fill:#5fba94;fill-rule:nonzero;"></path><path d="M68.15,134.75c0.21,0.36 -6.93,5.08 -17.8,5.36c-10.58,0.27 -17.9,-4.7 -17.58,-5.07c0.32,-0.37 5.3,2.06 17.54,1.77c14.37,-0.34 17.62,-2.43 17.84,-2.06" style="fill:#5fba94;fill-rule:nonzero;"></path><path d="M85.83,134.41c0.32,0.27 -4.91,7.05 -15.11,10.83c-9.93,3.68 -18.45,1.34 -18.27,0.89c0.18,-0.45 5.68,0.23 17.16,-4c13.49,-5 15.89,-8 16.22,-7.72" style="fill:#5fba94;fill-rule:nonzero;"></path><path d="M102.74,129c0.39,0.16 -2.48,8.23 -11,15c-8.29,6.58 -17.12,7 -17.09,6.53c0.03,-0.47 5.47,-1.55 15.07,-9.14c11.27,-8.92 12.61,-12.55 13,-12.38" style="fill:#5fba94;fill-rule:nonzero;"></path><path d="M120.56,119.21c0.41,0.07 -0.58,8.57 -7.37,17.07c-6.61,8.26 -15.12,10.66 -15.2,10.18c-0.08,-0.48 5,-2.73 12.65,-12.28c9,-11.21 9.5,-15 9.92,-15" style="fill:#5fba94;fill-rule:nonzero;"></path><path d="M131,104.4c0.4,-0.07 2.19,8.31 -1.51,18.53c-3.61,9.95 -10.91,14.94 -11.14,14.52c-0.23,-0.42 3.85,-4.19 8.05,-15.69c4.92,-13.5 4.17,-17.29 4.6,-17.36" style="fill:#5fba94;fill-rule:nonzero;"></path><path d="M139.66,104.17c0,0.49 -0.1,1 -0.15,1.51c-1.28,12.17 -4.36,16.75 -4,17.16c0.36,0.41 6.18,-6.25 7.27,-16.78c0.07,-0.64 0.12,-1.27 0.15,-1.88l-3.27,-0.01Z" style="fill:#5fba94;fill-rule:nonzero;"></path><path d="M139.78,43.06c-8.34,-6.39 -16.5,-7.3 -16.56,-6.9c-0.06,0.4 2.89,0.8 11.23,7l5.33,-0.1Z" style="fill:#5fba94;fill-rule:nonzero;"></path><path d="M199.44,55.88c-1.057,-0.408 -2.158,-0.693 -3.28,-0.85c-1.099,-0.144 -2.177,-0.419 -3.21,-0.82c-0.163,-0.281 -0.23,-0.608 -0.19,-0.93c-0.041,-0.545 0.144,-1.084 0.51,-1.49c0.23,-0.17 0.9,-0.47 2.79,-0.47c0.983,0.008 1.965,0.075 2.94,0.2l0.49,0c0.249,-0.005 0.45,-0.211 0.45,-0.46c0,-0.003 0,-0.007 0,-0.01c-0.054,-0.63 -0.393,-1.201 -0.92,-1.55c-1.014,-0.265 -2.063,-0.373 -3.11,-0.32c-2,0 -3.48,0.35 -4.3,1c-0.857,0.881 -1.282,2.097 -1.16,3.32c0,0.7 0.1,1.93 0.75,2.38c1.102,0.445 2.254,0.758 3.43,0.93c1.026,0.149 2.032,0.411 3,0.78c0.17,0.13 0.26,0.48 0.26,1c0,0.94 -0.26,1.26 -0.5,1.45c-0.24,0.19 -1.11,0.4 -2.57,0.4c-1.244,-0.031 -2.484,-0.154 -3.71,-0.37l-0.11,0c-0.007,0 -0.013,0 -0.02,0c-0.258,0 -0.47,0.212 -0.47,0.47c0,0 0,0 0,0c0.038,0.641 0.366,1.23 0.89,1.6c1.102,0.345 2.257,0.487 3.41,0.42c2.17,0 3.52,-0.28 4.24,-0.89c0.873,-0.936 1.297,-2.207 1.16,-3.48c0,-1.23 -0.28,-2.09 -0.8,-2.42" style="fill:#194464;fill-rule:nonzero;"></path><path d="M211.37,52.29l-1.37,0c-0.011,-0.001 -0.021,-0.001 -0.032,-0.001c-0.225,0 -0.41,0.185 -0.41,0.41c0,0.014 0.001,0.027 0.002,0.041l0,7.18c0,0.42 -0.09,0.49 -0.43,0.55c-0.601,0.107 -1.21,0.157 -1.82,0.15c-0.737,0.091 -1.482,-0.094 -2.09,-0.52c-0.313,-0.519 -0.44,-1.129 -0.36,-1.73l0,-5.31c0,-0.57 -0.2,-0.77 -0.76,-0.77l-1.07,0c-0.004,0 -0.009,0 -0.013,0c-0.22,0 -0.4,0.18 -0.4,0.4c0,0.017 0.001,0.033 0.003,0.05l0,5.88c0,1.68 0.17,2.41 0.72,3c0.55,0.59 1.87,1 3.88,1c1.399,0.008 2.795,-0.12 4.17,-0.38c0.243,-0.016 0.431,-0.227 0.42,-0.47l0,-9c0.003,-0.02 0.004,-0.041 0.004,-0.061c0,-0.236 -0.194,-0.43 -0.43,-0.43c-0.011,0 -0.023,0 -0.034,0.001" style="fill:#194464;fill-rule:nonzero;"></path><path d="M218.83,56.43c-0.712,-0.104 -1.412,-0.278 -2.09,-0.52c-0.05,0 -0.11,-0.21 -0.11,-0.54c-0.043,-0.367 0.082,-0.735 0.34,-1c0.634,-0.253 1.321,-0.349 2,-0.28c0.899,0.008 1.798,0.068 2.69,0.18l0.16,0c0.238,-0.005 0.43,-0.202 0.43,-0.44c-0.031,-0.552 -0.302,-1.063 -0.74,-1.4c-0.871,-0.261 -1.782,-0.366 -2.69,-0.31c-1.195,-0.126 -2.398,0.149 -3.42,0.78c-0.752,0.766 -1.12,1.833 -1,2.9c-0.039,0.585 0.143,1.163 0.51,1.62c0.869,0.397 1.793,0.664 2.74,0.79c0.835,0.121 1.651,0.346 2.43,0.67c0.06,0 0.15,0.21 0.15,0.54c0.044,0.347 -0.096,0.693 -0.37,0.91c-0.591,0.245 -1.232,0.344 -1.87,0.29c-1.032,-0.01 -2.062,-0.1 -3.08,-0.27l-0.06,0c-0.238,0.005 -0.43,0.202 -0.43,0.44c0,0.007 0,0.013 0,0.02c0.077,0.537 0.343,1.03 0.75,1.39c0.897,0.359 1.869,0.493 2.83,0.39c1.75,0 2.86,-0.24 3.5,-0.76c0.732,-0.722 1.1,-1.737 1,-2.76c0.074,-0.669 -0.132,-1.339 -0.57,-1.85c-0.968,-0.431 -1.997,-0.711 -3.05,-0.83" style="fill:#194464;fill-rule:nonzero;"></path><path d="M231.27,52.29l-3,0c-0.79,0 -0.79,0 -0.79,-0.83l0,-1.35c0.001,-0.013 0.002,-0.027 0.002,-0.04c0,-0.247 -0.203,-0.45 -0.45,-0.45c-0.001,0 -0.001,0 -0.002,0l-0.06,0c-0.541,0.015 -1.065,0.197 -1.5,0.52c-0.175,0.302 -0.246,0.654 -0.2,1l0,0.86c0,0.32 -0.07,0.32 -0.19,0.32l-0.28,0c-0.211,-0.013 -0.422,0.032 -0.61,0.13c-0.396,0.357 -0.634,0.857 -0.66,1.39c0,0.003 0,0.007 0,0.01c0,0.219 0.18,0.4 0.4,0.4l0.81,0c0.5,0 0.53,0 0.53,0.62l0,4.42c0,1.59 0.14,2.19 0.61,2.66c0.775,0.54 1.723,0.776 2.66,0.66c0.722,0.053 1.448,-0.045 2.13,-0.29c0.506,-0.286 0.842,-0.802 0.9,-1.38c-0.005,-0.238 -0.202,-0.43 -0.44,-0.43c-0.003,0 -0.007,0 -0.01,0l-0.12,0c-0.592,0.092 -1.191,0.136 -1.79,0.13c-0.85,0 -1.32,-0.08 -1.51,-0.26c-0.19,-0.18 -0.28,-0.49 -0.28,-1.52l0,-4c0,-0.62 0,-0.64 0.64,-0.64l2,0c0.27,0.022 0.541,-0.023 0.79,-0.13c0.463,-0.306 0.77,-0.8 0.84,-1.35c0,-0.008 0.001,-0.015 0.001,-0.023c0,-0.236 -0.194,-0.43 -0.43,-0.43c-0.017,0 -0.034,0.001 -0.051,0.003" style="fill:#194464;fill-rule:nonzero;"></path><path d="M241.56,61.89l0,-5.17c0,-2.47 -0.29,-3.24 -0.81,-3.78c-0.52,-0.54 -1.58,-0.8 -3.41,-0.8c-1.102,-0.061 -2.206,0.091 -3.25,0.45c-0.454,0.348 -0.753,0.863 -0.83,1.43c0.001,0.123 0.055,0.241 0.15,0.32c0.085,0.069 0.191,0.104 0.3,0.1l0.07,0c0.991,-0.167 1.995,-0.254 3,-0.26c1.39,0 1.92,0.08 2.2,0.34c0.28,0.26 0.36,0.7 0.36,1.64c0,0.14 -0.05,0.17 -0.14,0.17c-2.35,0.09 -5.08,0.31 -5.7,0.7c-0.571,0.681 -0.841,1.566 -0.75,2.45c-0.087,0.867 0.188,1.733 0.76,2.39c0.64,0.54 1.75,0.76 3.83,0.76c1.251,0.002 2.501,-0.085 3.74,-0.26c0.003,0 0.007,0 0.01,0c0.253,0 0.46,-0.208 0.46,-0.46c0,-0.007 0,-0.013 0,-0.02m-2.23,-3.57l0,1.52c0,0.61 -0.08,0.69 -0.14,0.74c-0.635,0.173 -1.294,0.237 -1.95,0.19c-0.669,0.089 -1.35,-0.03 -1.95,-0.34c-0.21,-0.15 -0.31,-0.48 -0.31,-1c0,-0.52 0.07,-0.8 0.22,-0.91c1.313,-0.29 2.657,-0.411 4,-0.36l0.15,0c0.012,0.049 0.012,0.101 0,0.15" style="fill:#194464;fill-rule:nonzero;"></path><path d="M246.33,62.5c0.014,0.002 0.029,0.002 0.043,0.002c0.225,0 0.41,-0.185 0.41,-0.41c0,-0.017 -0.001,-0.035 -0.003,-0.052l0,-9.28c0.004,-0.024 0.006,-0.048 0.006,-0.072c0,-0.219 -0.18,-0.4 -0.4,-0.4c-0.012,0 -0.024,0.001 -0.036,0.002l-1.35,0c-0.017,-0.002 -0.035,-0.003 -0.052,-0.003c-0.236,0 -0.43,0.194 -0.43,0.43c0,0.014 0.001,0.029 0.002,0.043l0,9.24c0,0.14 0,0.46 0.41,0.46l1.4,0.04Z" style="fill:#194464;fill-rule:nonzero;"></path><path d="M245.71,48.37c-0.37,-0.038 -0.743,0.046 -1.06,0.24c-0.24,0.15 -0.36,0.5 -0.36,1c-0.032,0.334 0.081,0.665 0.31,0.91c0.319,0.188 0.691,0.269 1.06,0.23c0.368,0.031 0.738,-0.049 1.06,-0.23c0.253,-0.268 0.377,-0.633 0.34,-1c0.054,-0.363 -0.061,-0.731 -0.31,-1c-0.299,-0.184 -0.651,-0.265 -1,-0.23" style="fill:#194464;fill-rule:nonzero;"></path><path d="M254.67,52.16c-1.465,0.021 -2.928,0.131 -4.38,0.33c-0.235,0.016 -0.421,0.214 -0.42,0.45l0,9.06c-0.002,0.017 -0.003,0.035 -0.003,0.052c0,0.225 0.185,0.41 0.41,0.41c0.014,0 0.029,0 0.043,-0.002l1.39,0c0.004,0 0.009,0 0.013,0c0.225,0 0.41,-0.185 0.41,-0.41c0,-0.017 -0.001,-0.033 -0.003,-0.05l0,-7.2c0,-0.5 0,-0.5 0.3,-0.53c0.713,-0.087 1.432,-0.124 2.15,-0.11c1,0 1.59,0.13 1.86,0.43c0.27,0.3 0.38,0.71 0.38,1.9l0,5.25c0,0.39 0.09,0.76 0.69,0.76l1.15,0c0.011,0.001 0.022,0.001 0.033,0.001c0.214,0 0.39,-0.176 0.39,-0.39c0,-0.017 -0.001,-0.034 -0.003,-0.051l0,-6c0,-1.65 -0.19,-2.43 -0.75,-3c-0.56,-0.57 -1.71,-0.89 -3.66,-0.89" style="fill:#194464;fill-rule:nonzero;"></path><path d="M268,56.33c-2.35,0.09 -5.07,0.31 -5.69,0.7c-0.571,0.681 -0.841,1.566 -0.75,2.45c-0.09,0.867 0.186,1.734 0.76,2.39c0.63,0.54 1.74,0.76 3.83,0.76c1.251,0.002 2.501,-0.085 3.74,-0.26c0,0 0,0 0,0c0.253,0 0.46,-0.208 0.46,-0.46c0,-0.007 0,-0.013 0,-0.02l0,-5.17c0,-2.47 -0.28,-3.24 -0.8,-3.78c-0.52,-0.54 -1.58,-0.8 -3.42,-0.8c-1.099,-0.062 -2.199,0.091 -3.24,0.45c-0.435,0.351 -0.718,0.856 -0.79,1.41c0,0 0,0 0,0c0,0.231 0.19,0.42 0.42,0.42c0.007,0 0.013,0 0.02,0l0.08,0c0.991,-0.167 1.995,-0.254 3,-0.26c1.39,0 1.92,0.08 2.2,0.34c0.28,0.26 0.36,0.54 0.36,1.64c0,0.14 -0.05,0.17 -0.15,0.17m0.13,2l0,1.52c0,0.61 -0.08,0.69 -0.14,0.74c-0.635,0.172 -1.294,0.236 -1.95,0.19c-0.669,0.091 -1.351,-0.028 -1.95,-0.34c-0.21,-0.15 -0.31,-0.48 -0.31,-1c0,-0.52 0.07,-0.8 0.21,-0.91c1.313,-0.289 2.657,-0.41 4,-0.36l0.16,0c0.012,0.049 0.012,0.101 0,0.15" style="fill:#194464;fill-rule:nonzero;"></path><path d="M281.66,52.88c-0.924,-0.569 -2.009,-0.822 -3.09,-0.72c-0.816,0.01 -1.631,0.07 -2.44,0.18l-0.37,0l-0.13,0c-0.011,-0.032 -0.011,-0.068 0,-0.1l0,-3.7c0,-0.45 -0.3,-0.5 -0.44,-0.5l-1.35,0c-0.007,0 -0.014,0 -0.02,0c-0.242,0 -0.44,0.198 -0.44,0.44c0,0.006 0,0.013 0,0.02l0,13.17c-0.005,0.03 -0.007,0.06 -0.007,0.09c0,0.307 0.253,0.56 0.56,0.56c0.002,0 0.005,0 0.007,0c1.112,0.168 2.235,0.248 3.36,0.24c2.13,0 3.39,-0.29 4.2,-1c0.81,-0.71 1.46,-2.48 1.46,-4.73c0,-2 -0.43,-3.3 -1.28,-4m-1.83,7.22c-0.67,0.439 -1.474,0.63 -2.27,0.54c-0.545,0.005 -1.09,-0.031 -1.63,-0.11c-0.24,0 -0.32,0 -0.32,-0.67l0,-4.81c0,-0.58 0.09,-0.6 0.24,-0.63c0.712,-0.135 1.435,-0.202 2.16,-0.2c0.695,-0.087 1.399,0.061 2,0.42c0.31,0.25 0.68,0.9 0.68,2.57c0,1.92 -0.53,2.68 -0.84,2.95" style="fill:#194464;fill-rule:nonzero;"></path><path d="M287.36,48.12l-1.44,0c-0.004,0 -0.007,0 -0.011,0c-0.241,0 -0.44,0.198 -0.44,0.44c0,0.01 0,0.02 0.001,0.03l0,12.88c0,0.86 0.42,1 1.13,1l0.69,0c0.014,0.001 0.028,0.002 0.042,0.002c0.22,0 0.4,-0.18 0.4,-0.4c0,-0.014 -0.001,-0.028 -0.002,-0.042l0,-13.42c0,-0.4 -0.2,-0.49 -0.37,-0.49" style="fill:#194464;fill-rule:nonzero;"></path><path d="M293.06,58.14l5.94,0c0.67,0 0.67,-0.57 0.67,-0.84c0,-2.31 -0.34,-3.61 -1.16,-4.36c-0.949,-0.639 -2.092,-0.926 -3.23,-0.81c-1.24,-0.102 -2.479,0.222 -3.51,0.92c-0.67,0.57 -1.48,1.8 -1.48,4.42c0,2.14 0.38,3.39 1.27,4.19c1.079,0.771 2.4,1.126 3.72,1c1.052,0.055 2.106,-0.08 3.11,-0.4c0.502,-0.331 0.83,-0.871 0.89,-1.47c0,-0.003 0,-0.007 0,-0.01c0,-0.238 -0.192,-0.435 -0.43,-0.44l-0.07,0c-1.022,0.192 -2.06,0.293 -3.1,0.3c-1.59,0 -2.21,-0.28 -2.47,-0.52c-0.447,-0.486 -0.659,-1.144 -0.58,-1.8c0,-0.12 0,-0.16 0.44,-0.16m2.05,-4.16c0.598,-0.061 1.2,0.068 1.72,0.37c0.39,0.468 0.574,1.074 0.51,1.68c0.012,0.094 -0.009,0.19 -0.06,0.27c-0.136,0.016 -0.274,0.016 -0.41,0l-3.88,0c-0.129,0.023 -0.261,0.023 -0.39,0c-0.129,-0.023 0,0 0,-0.09c-0.012,-0.639 0.217,-1.26 0.64,-1.74c0.542,-0.362 1.19,-0.531 1.84,-0.48" style="fill:#194464;fill-rule:nonzero;"></path><path d="M199.44,74.77c-1.057,-0.408 -2.158,-0.693 -3.28,-0.85c-1.099,-0.144 -2.177,-0.419 -3.21,-0.82c-0.161,-0.282 -0.228,-0.608 -0.19,-0.93c-0.041,-0.545 0.144,-1.084 0.51,-1.49c0.23,-0.18 0.9,-0.47 2.79,-0.47c0.983,0.009 1.965,0.076 2.94,0.2l0.49,0c0.249,-0.005 0.45,-0.211 0.45,-0.46c0,-0.003 0,-0.007 0,-0.01c-0.054,-0.63 -0.393,-1.201 -0.92,-1.55c-1.014,-0.265 -2.063,-0.373 -3.11,-0.32c-2.06,0 -3.47,0.34 -4.3,1c-0.858,0.88 -1.283,2.097 -1.16,3.32c0,0.69 0.1,1.92 0.75,2.38c1.102,0.445 2.254,0.758 3.43,0.93c1.024,0.152 2.029,0.411 3,0.77c0.17,0.14 0.26,0.49 0.26,1c0,0.94 -0.26,1.26 -0.5,1.45c-0.24,0.19 -1.11,0.4 -2.57,0.4c-1.244,-0.037 -2.483,-0.161 -3.71,-0.37l-0.11,0c-0.26,0 -0.475,0.21 -0.48,0.47c0.038,0.641 0.366,1.23 0.89,1.6c1.102,0.345 2.257,0.487 3.41,0.42c2.17,0 3.52,-0.29 4.24,-0.9c0.872,-0.933 1.295,-2.2 1.16,-3.47c0,-1.23 -0.28,-2.09 -0.8,-2.42" style="fill:#194464;fill-rule:nonzero;"></path><path d="M207.65,73.05c0.822,0.007 1.644,0.06 2.46,0.16l0.1,0c0.272,-0.024 0.486,-0.248 0.5,-0.52c-0.021,-0.518 -0.274,-1 -0.69,-1.31c-0.827,-0.334 -1.722,-0.464 -2.61,-0.38c-1.82,0 -3,0.31 -3.76,1c-1.095,1.17 -1.641,2.754 -1.5,4.35c0,2.12 0.41,3.46 1.29,4.23c1.026,0.762 2.298,1.118 3.57,1c0.98,0.07 1.964,-0.063 2.89,-0.39c0.453,-0.355 0.745,-0.878 0.81,-1.45c0,-0.236 -0.194,-0.43 -0.43,-0.43l-0.08,0l-0.37,0c-0.758,0.118 -1.523,0.179 -2.29,0.18c-0.854,0.096 -1.717,-0.087 -2.46,-0.52c-0.4,-0.35 -0.67,-1 -0.67,-2.74c-0.098,-0.964 0.182,-1.928 0.78,-2.69c0.751,-0.411 1.609,-0.582 2.46,-0.49" style="fill:#194464;fill-rule:nonzero;"></path><path d="M217.33,71c-1.294,-0.088 -2.583,0.238 -3.68,0.93c-1,0.76 -1.52,2.36 -1.52,4.5c0,2 0.39,3.28 1.19,4.09c1.046,0.803 2.355,1.188 3.67,1.08c1.306,0.1 2.609,-0.23 3.71,-0.94c0.93,-0.77 1.47,-2.42 1.47,-4.51c0,-2.09 -0.39,-3.35 -1.19,-4.15c-0.8,-0.8 -1.87,-1 -3.65,-1m1.77,8.16c-0.602,0.358 -1.303,0.516 -2,0.45c-0.709,0.063 -1.419,-0.128 -2,-0.54c-0.53,-0.809 -0.764,-1.778 -0.66,-2.74c0,-1.83 0.49,-2.55 0.78,-2.82c0.621,-0.425 1.371,-0.619 2.12,-0.55c1.29,0 1.8,0.3 2,0.56c0.2,0.26 0.66,1 0.66,2.72c0,1.44 -0.31,2.53 -0.84,2.92" style="fill:#194464;fill-rule:nonzero;"></path><path d="M228,73.1l2,0c0.269,0.023 0.54,-0.018 0.79,-0.12c0.456,-0.311 0.758,-0.803 0.83,-1.35c0,-0.008 0.001,-0.015 0.001,-0.023c0,-0.236 -0.194,-0.43 -0.43,-0.43c-0.017,0 -0.034,0.001 -0.051,0.003l-3,0c-0.8,0 -0.8,0 -0.8,-0.83l0,-1.35c0.001,-0.013 0.002,-0.027 0.002,-0.04c0,-0.244 -0.198,-0.446 -0.442,-0.45l-0.06,0c-0.545,0.014 -1.072,0.196 -1.51,0.52c-0.166,0.305 -0.232,0.655 -0.19,1l0,0.83c0,0.32 -0.08,0.32 -0.2,0.32l-0.28,0c-0.21,-0.011 -0.42,0.03 -0.61,0.12c-0.399,0.359 -0.637,0.864 -0.66,1.4c0,0.004 0,0.007 0,0.011c0,0.213 0.176,0.39 0.39,0.39c0.007,0 0.013,-0.001 0.02,-0.001l0.81,0c0.5,0 0.53,0 0.53,0.63l0,4.42c0,1.59 0.14,2.19 0.61,2.66c0.773,0.535 1.717,0.767 2.65,0.65c0.725,0.056 1.454,-0.039 2.14,-0.28c0.503,-0.29 0.837,-0.803 0.9,-1.38c-0.005,-0.238 -0.202,-0.43 -0.44,-0.43c-0.003,0 -0.007,0 -0.01,0l-0.07,0c-0.593,0.088 -1.191,0.131 -1.79,0.13c-0.518,0.065 -1.044,-0.025 -1.51,-0.26c-0.17,-0.18 -0.28,-0.49 -0.28,-1.52l0,-4c0,-0.62 0,-0.65 0.65,-0.65" style="fill:#194464;fill-rule:nonzero;"></path><path d="M235.06,67l-1.44,0c-0.004,0 -0.007,0 -0.011,0c-0.241,0 -0.44,0.198 -0.44,0.44c0,0.01 0,0.02 0.001,0.03l0,12.88c0,0.86 0.41,1 1.12,1l0.7,0c0.014,0.002 0.029,0.002 0.043,0.002c0.22,0 0.4,-0.18 0.4,-0.4c0,-0.017 -0.001,-0.035 -0.003,-0.052l0,-13.41c0,-0.39 -0.2,-0.48 -0.37,-0.48" style="fill:#194464;fill-rule:nonzero;"></path><path d="M242.58,71c-1.102,-0.061 -2.206,0.092 -3.25,0.45c-0.451,0.346 -0.746,0.857 -0.82,1.42c-0.004,0.127 0.052,0.249 0.15,0.33c0.081,0.068 0.184,0.103 0.29,0.1l0.05,0c0.991,-0.167 1.995,-0.253 3,-0.26c1.39,0 1.92,0.08 2.2,0.34c0.28,0.26 0.36,0.54 0.36,1.64c0,0.14 0,0.17 -0.14,0.17c-2.35,0.09 -5.08,0.31 -5.7,0.7c-0.571,0.681 -0.841,1.566 -0.75,2.45c-0.089,0.869 0.19,1.737 0.77,2.39c0.63,0.54 1.74,0.76 3.83,0.76c1.251,0.002 2.501,-0.085 3.74,-0.26c0.254,-0.005 0.46,-0.216 0.46,-0.47c0,-0.003 0,-0.007 0,-0.01l0,-5.17c0,-2.47 -0.29,-3.24 -0.81,-3.78c-0.52,-0.54 -1.58,-0.8 -3.41,-0.8m2,6.18l0,1.52c0,0.56 -0.07,0.67 -0.15,0.74c-0.635,0.173 -1.294,0.237 -1.95,0.19c-0.686,0.098 -1.385,-0.021 -2,-0.34c-0.21,-0.15 -0.31,-0.48 -0.31,-1c0,-0.52 0.07,-0.8 0.22,-0.91c1.313,-0.29 2.657,-0.411 4,-0.36l0.15,0l0,0.15" style="fill:#194464;fill-rule:nonzero;"></path><path d="M254.56,71.05c-1.466,0.016 -2.929,0.126 -4.38,0.33c-0.233,0.02 -0.416,0.216 -0.42,0.45l0,9.1c-0.002,0.017 -0.003,0.035 -0.003,0.052c0,0.225 0.185,0.41 0.41,0.41c0.014,0 0.029,0 0.043,-0.002l1.38,0c0.008,0 0.015,0.001 0.023,0.001c0.225,0 0.41,-0.185 0.41,-0.41c0,-0.017 -0.001,-0.034 -0.003,-0.051l0,-7.24c0,-0.5 0,-0.5 0.3,-0.53c0.713,-0.087 1.432,-0.124 2.15,-0.11c1,0 1.58,0.13 1.86,0.43c0.28,0.3 0.38,0.71 0.38,1.9l0,5.25c0,0.39 0.08,0.76 0.69,0.76l1.14,0c0.011,0.001 0.022,0.001 0.033,0.001c0.22,0 0.4,-0.18 0.4,-0.4c0,-0.017 -0.001,-0.034 -0.003,-0.051l0,-6c0,-1.65 -0.2,-2.44 -0.76,-3c-0.56,-0.56 -1.7,-0.88 -3.65,-0.88" style="fill:#194464;fill-rule:nonzero;"></path><path d="M270.55,67l-1.16,0c-0.56,0 -0.64,0.38 -0.64,0.76l0,3.24c0.006,0.03 0.006,0.06 0,0.09l-0.17,0c-0.55,0 -1.27,-0.06 -2,-0.06c-1.338,-0.127 -2.676,0.252 -3.75,1.06c-0.9,0.89 -1.33,2.33 -1.33,4.4c0,2.57 0.8,3.65 1.28,4.06c0.75,0.65 1.9,0.91 4.12,0.91c1.172,0.011 2.343,-0.076 3.5,-0.26c0.43,0 0.61,-0.26 0.61,-0.73l0,-13c0,-0.45 -0.27,-0.51 -0.43,-0.51m-1.8,6.66l0,5.24c0,0.49 -0.06,0.5 -0.26,0.53c-0.572,0.09 -1.151,0.127 -1.73,0.11c-0.812,0.115 -1.639,-0.055 -2.34,-0.48c-0.27,-0.21 -0.72,-0.85 -0.72,-2.68c-0.101,-1.009 0.174,-2.02 0.77,-2.84c0.673,-0.451 1.488,-0.639 2.29,-0.53c0.575,0.003 1.149,0.04 1.72,0.11c0.19,0 0.27,0 0.27,0.54" style="fill:#194464;fill-rule:nonzero;"></path>
    
    </g>
</svg>